<?xml version="1.0" encoding="utf-8"?>
<!-- Generator: Adobe Illustrator 21.0.0, SVG Export Plug-In . SVG Version: 6.00 Build 0)  -->
<svg version="1.1" xmlns="http://www.w3.org/2000/svg" xmlns:xlink="http://www.w3.org/1999/xlink" x="0px" y="0px"
	 viewBox="0 0 80 80" style="enable-background:new 0 0 80 80;" xml:space="preserve">
<style type="text/css">
	.st0{fill:#FFFFFF;}
</style>
<g id="Layer_1">
	<title>Asset 1</title>
</g>
<g id="Isolation_Mode">
	<path class="st0" d="M50.5,42.3c-6.5,0-7.4,3.9-7.4,6.7c0.1,2.5,0.3,5,0.7,7.4c0.4,2.5,0.7,5,0.7,7.5c0,9.2-5.8,12.5-13.3,12.5
		h-1.9v-5H31c5.1-0.1,7.3-2.8,7.3-7.9c-0.1-2.2-0.3-4.4-0.6-6.6c-0.4-2.3-0.7-4.6-0.7-6.9c0-5.8,2.6-9,6.6-10v-0.2
		c-4-1.1-6.6-4-6.6-9.9c0.1-2.3,0.3-4.7,0.7-6.9c0.3-2.1,0.6-4.3,0.6-6.5c0-4.9-1.9-7.8-7.2-7.9h-1.6v-5h1.8c7.7,0,13.3,3.6,13.3,12
		c-0.1,2.5-0.3,5.1-0.7,7.6c-0.4,2.5-0.7,5.1-0.7,7.7c0,3.2,0.9,6.7,7.4,6.7L50.5,42.3z"/>
</g>
</svg>
