<svg xmlns="http://www.w3.org/2000/svg" viewBox="0 0 376.81 162.45"><defs><style>.cls-1{fill:#262262;}</style></defs><title>Asset 12</title><g id="Layer_2" data-name="Layer 2"><g id="CALCULATOR"><path class="cls-1" d="M361.37,103a9.86,9.86,0,1,1-9.85,9.85,9.86,9.86,0,0,1,9.85-9.85m0-5.59a15.45,15.45,0,1,0,15.44,15.44,15.44,15.44,0,0,0-15.44-15.44Z"/><polygon class="cls-1" points="247.19 122.15 153.79 122.15 129.84 98.19 129.84 30.14 153.79 6.18 247.19 6.18 253.37 0 151.24 0 123.66 27.58 123.66 100.75 151.24 128.33 253.37 128.33 247.19 122.15"/><polygon class="cls-1" points="234.84 109.8 158.91 109.8 142.19 93.08 142.19 35.25 158.91 18.53 234.84 18.53 241.01 12.35 156.35 12.35 136.01 32.69 136.01 95.63 156.35 115.97 241.01 115.97 234.84 109.8"/><polygon class="cls-1" points="222.49 97.44 164.02 97.44 154.54 87.96 154.54 40.37 164.02 30.88 222.49 30.88 228.66 24.71 161.47 24.71 148.37 37.81 148.37 90.52 161.47 103.62 228.66 103.62 222.49 97.44"/><polygon class="cls-1" points="35.75 6.18 123.66 6.18 123.66 41.93 129.83 41.93 129.83 0 35.75 0 35.75 6.18"/><polygon class="cls-1" points="35.75 18.53 111.3 18.53 111.3 99.44 117.48 99.44 117.48 12.35 35.75 12.35 35.75 18.53"/><path class="cls-1" d="M15.57,5.59a9.86,9.86,0,1,1-9.86,9.85,9.86,9.86,0,0,1,9.86-9.85m0-5.59A15.44,15.44,0,1,0,31,15.44,15.45,15.45,0,0,0,15.57,0Z"/><polygon class="cls-1" points="111.3 97.44 111.3 109.8 35.38 109.8 18.66 93.08 18.66 83.97 35.38 67.25 92.78 67.25 92.78 61.08 32.82 61.08 12.48 81.42 12.48 95.63 32.82 115.97 117.48 115.97 117.48 97.44 111.3 97.44"/><polygon class="cls-1" points="98.95 41.93 98.95 48.72 98.95 48.72 98.95 73.43 98.95 79.61 98.95 79.93 98.95 81.28 98.95 85.81 98.95 88.89 98.95 97.44 40.49 97.44 31.57 88.53 40.49 79.61 92.78 79.61 92.78 73.43 37.93 73.43 24.83 86.53 24.83 90.52 37.93 103.62 105.13 103.62 105.13 88.89 105.13 85.81 105.13 81.28 105.13 73.43 105.13 48.72 105.13 48.72 105.13 41.93 105.13 24.71 35.75 24.71 35.75 30.88 98.95 30.88 98.95 41.93"/><polygon class="cls-1" points="123.66 85.81 123.66 122.15 30.26 122.15 6.3 98.19 6.3 78.86 30.26 54.9 92.78 54.9 92.78 48.72 27.7 48.72 0.13 76.3 0.13 100.75 27.7 128.33 129.83 128.33 129.83 85.81 123.66 85.81"/><polygon class="cls-1" points="341.03 67.25 361.37 46.91 361.37 37.23 361.37 37.23 361.37 12.35 267.4 12.35 247.06 32.69 247.06 95.63 267.4 115.97 344.07 115.97 344.07 109.8 269.95 109.8 253.23 93.08 253.23 35.25 269.95 18.53 355.19 18.53 355.19 37.23 355.19 44.35 338.47 61.08 271.76 61.08 271.76 67.25 341.03 67.25"/><polygon class="cls-1" points="265.59 46.43 265.59 46.43 265.59 40.37 275.07 30.88 342.84 30.88 342.84 35.76 342.84 37.23 342.84 39.24 333.36 48.72 271.76 48.72 271.76 54.9 335.92 54.9 349.02 41.8 349.02 37.23 349.02 33.2 349.02 24.71 272.51 24.71 259.41 37.81 259.41 90.52 272.51 103.62 344.07 103.62 344.07 97.44 342.84 97.44 324.94 97.44 275.07 97.44 265.59 87.96 265.59 79.93 265.59 79.93 265.59 46.43"/><polygon class="cls-1" points="262.28 0 234.7 27.58 234.7 100.75 262.28 128.33 344.07 128.33 344.07 122.15 264.84 122.15 240.88 98.19 240.88 30.14 264.84 6.18 367.55 6.18 367.55 33.44 367.55 37.23 367.55 49.47 343.59 73.43 271.76 73.43 271.76 79.61 346.15 79.61 373.72 52.03 373.72 37.23 373.72 37.23 373.72 0 262.28 0"/><path class="cls-1" d="M8.11,144.21H10l8.11,17.93H16l-2.09-4.7H4.17l-2.11,4.7H0Zm5,11.39-4.05-9L5,155.6Z"/><path class="cls-1" d="M23.15,144.33h7.66a7,7,0,0,1,5.06,1.79,4.89,4.89,0,0,1,1.38,3.51v.05c0,2.95-2,4.68-4.84,5.19l5.47,7.27H35.41l-5.16-6.92H25.16v6.92h-2Zm7.48,9.09c2.67,0,4.58-1.38,4.58-3.67v-.05c0-2.19-1.68-3.51-4.55-3.51h-5.5v7.23Z"/><path class="cls-1" d="M43.07,144.33h2l6.49,9.72,6.48-9.72h2v17.81h-2V147.72l-6.49,9.54h-.1L45,147.74v14.4h-2Z"/><path class="cls-1" d="M65.9,153.29v0a9.08,9.08,0,1,1,18.16-.05v.05A9,9,0,0,1,75,162.45,8.93,8.93,0,0,1,65.9,153.29Zm16.07,0v0a7.07,7.07,0,0,0-7-7.35,7,7,0,0,0-7,7.3v.05a7.08,7.08,0,0,0,7,7.35A7,7,0,0,0,82,153.29Z"/><path class="cls-1" d="M89.84,144.33H97.5a7,7,0,0,1,5.06,1.79,4.93,4.93,0,0,1,1.37,3.51v.05c0,2.95-2,4.68-4.83,5.19l5.47,7.27H102.1l-5.16-6.92H91.85v6.92h-2Zm7.48,9.09c2.67,0,4.58-1.38,4.58-3.67v-.05c0-2.19-1.68-3.51-4.56-3.51H91.85v7.23Z"/><path class="cls-1" d="M118.13,153.29v0a9,9,0,0,1,9-9.21,9.25,9.25,0,0,1,6.94,2.82l-1.37,1.48a7.72,7.72,0,0,0-5.6-2.44,7,7,0,0,0-6.89,7.3v.05c0,4.12,3,7.35,6.89,7.35a7.72,7.72,0,0,0,5.75-2.57l1.32,1.3a9.27,9.27,0,0,1-7.12,3.13A8.89,8.89,0,0,1,118.13,153.29Z"/><path class="cls-1" d="M137.93,153.29v0a9.08,9.08,0,1,1,18.16-.05v.05a9,9,0,0,1-9.11,9.21A8.93,8.93,0,0,1,137.93,153.29Zm16.07,0v0a7.07,7.07,0,0,0-7-7.35,7,7,0,0,0-7,7.3v.05a7.08,7.08,0,0,0,7,7.35A7,7,0,0,0,154,153.29Z"/><path class="cls-1" d="M161.87,144.33h1.88L175,158.61V144.33h2v17.81h-1.6l-11.5-14.6v14.6h-2Z"/><path class="cls-1" d="M183.49,144.33h1.89l11.21,14.28V144.33h2v17.81H197l-11.5-14.6v14.6h-2Z"/><path class="cls-1" d="M205.12,144.33H218v1.84H207.13v6.08h9.72v1.83h-9.72v6.23h11v1.83h-13Z"/><path class="cls-1" d="M222.9,153.29v0a9,9,0,0,1,9-9.21,9.25,9.25,0,0,1,6.94,2.82l-1.37,1.48a7.72,7.72,0,0,0-5.6-2.44,7,7,0,0,0-6.89,7.3v.05a7,7,0,0,0,6.89,7.35,7.71,7.71,0,0,0,5.75-2.57l1.33,1.3a9.3,9.3,0,0,1-7.13,3.13A8.89,8.89,0,0,1,222.9,153.29Z"/><path class="cls-1" d="M248.7,146.19h-6v-1.86h14v1.86h-6v15.95h-2Z"/><path class="cls-1" d="M271.17,144.33H284v1.84H273.18v6.08h9.72v1.83h-9.72v6.23h11v1.83h-13Z"/><path class="cls-1" d="M289.74,144.33h1.88l11.22,14.28V144.33h2v17.81h-1.6l-11.5-14.6v14.6h-2Z"/><path class="cls-1" d="M310.58,153.29v0a8.94,8.94,0,0,1,8.93-9.21,9.39,9.39,0,0,1,6.64,2.36l-1.3,1.53a7.59,7.59,0,0,0-5.42-2c-3.94,0-6.76,3.33-6.76,7.3v.05c0,4.25,2.72,7.4,7,7.4a8.39,8.39,0,0,0,5.14-1.78v-4.43h-5.42v-1.8h7.35v7.1a10.79,10.79,0,0,1-7.14,2.72C314,162.45,310.58,158.38,310.58,153.29Z"/><path class="cls-1" d="M333,144.33h2v17.81h-2Z"/><path class="cls-1" d="M341.77,144.33h1.88l11.22,14.28V144.33h2v17.81h-1.6l-11.5-14.6v14.6h-2Z"/><path class="cls-1" d="M363.4,144.33h12.87v1.84H365.41v6.08h9.72v1.83h-9.72v6.23h11v1.83h-13Z"/></g></g></svg>