<?xml version="1.0" encoding="utf-8"?>
<!-- Generator: Adobe Illustrator 21.0.0, SVG Export Plug-In . SVG Version: 6.00 Build 0)  -->
<svg version="1.1" id="Layer_1" xmlns="http://www.w3.org/2000/svg" xmlns:xlink="http://www.w3.org/1999/xlink" x="0px" y="0px"
	 viewBox="0 0 1345.3 169" style="enable-background:new 0 0 1345.3 169;" xml:space="preserve">
<style type="text/css">
	.st0{fill:none;stroke:#FFFFFF;stroke-width:3.932;stroke-miterlimit:10;}
	.st1{clip-path:url(#SVGID_2_);}
	.st2{fill:#FFFFFF;}
</style>
<g>
	<line class="st0" x1="435.3" y1="68.6" x2="0" y2="68.6"/>
	<line class="st0" x1="1345.3" y1="68.6" x2="910.1" y2="68.6"/>
</g>
<g>
	<defs>
		<rect id="SVGID_1_" x="481.7" width="382" height="169"/>
	</defs>
	<clipPath id="SVGID_2_">
		<use xlink:href="#SVGID_1_"  style="overflow:visible;"/>
	</clipPath>
	<g id="Artboard_1" class="st1">
		<g id="Layer_2" transform="translate(3 3)">
			<g id="CALCULATOR">
				<path id="Path_1" class="st2" d="M843,103c5.4,0,9.9,4.4,9.9,9.9s-4.4,9.9-9.8,9.9c-5.4,0-9.9-4.4-9.9-9.9c0,0,0,0,0,0
					C833.2,107.4,837.6,103,843,103 M843,97.4c-8.5,0-15.5,6.9-15.5,15.4c0,8.5,6.9,15.5,15.4,15.5c8.5,0,15.5-6.9,15.5-15.4
					c0,0,0,0,0,0C858.5,104.3,851.6,97.4,843,97.4z"/>
				<path id="Path_2" class="st2" d="M728.9,122.2h-93.4l-24-24V30.1l23.9-24h93.4L735,0H632.9l-27.6,27.6v73.2l27.6,27.6H735
					L728.9,122.2z"/>
				<path id="Path_3" class="st2" d="M716.5,109.8h-75.9l-16.7-16.7V35.3l16.7-16.7h75.9l6.2-6.2H638l-20.3,20.3v62.9L638,116h84.7
					L716.5,109.8z"/>
				<path id="Path_4" class="st2" d="M704.2,97.4h-58.5l-9.5-9.5V40.4l9.5-9.5h58.5l6.2-6.2h-67.2L630,37.8v52.7l13.1,13.1h67.2
					L704.2,97.4z"/>
				<path id="Path_5" class="st2" d="M517.4,6.2h87.9v35.8h6.2V0h-94.1V6.2z"/>
				<path id="Path_6" class="st2" d="M517.4,18.5H593v80.9h6.2V12.4h-81.7V18.5z"/>
				<path id="Path_7" class="st2" d="M497.2,5.6c5.4,0,9.9,4.4,9.9,9.9s-4.4,9.9-9.9,9.9c-5.4,0-9.9-4.4-9.9-9.9c0,0,0,0,0,0
					C487.4,10,491.8,5.6,497.2,5.6 M497.2,0c-8.5,0-15.4,6.9-15.4,15.4s6.9,15.4,15.4,15.4c8.5,0,15.4-6.9,15.4-15.4c0,0,0,0,0,0
					C512.7,6.9,505.8,0,497.2,0z"/>
				<path id="Path_8" class="st2" d="M593,97.4v12.4H517l-16.7-16.7V84L517,67.3h57.4v-6.2h-60l-20.3,20.3v14.2l20.3,20.3h84.7V97.4
					H593z"/>
				<path id="Path_9" class="st2" d="M580.6,41.9v6.8l0,0v48.7h-58.5l-8.9-8.9l8.9-8.9h52.3v-6.2h-54.9l-13.1,13.1v4l13.1,13.1h67.2
					V48.7l0,0v-24h-69.4v6.2h63.2V41.9z"/>
				<path id="Path_10" class="st2" d="M605.3,85.8v36.3h-93.4l-24-24V78.9l24-24h62.5v-6.2h-65.1l-27.6,27.6v24.4l27.6,27.6h102.1
					V85.8H605.3z"/>
				<path id="Path_11" class="st2" d="M822.7,67.3L843,46.9v-9.7l0,0V12.4h-94l-20.3,20.3v62.9l20.3,20.3h76.7v-6.2h-74.1
					l-16.7-16.7V35.3l16.7-16.7h85.2v25.8l-16.7,16.7h-66.7v6.2H822.7z"/>
				<path id="Path_12" class="st2" d="M747.3,46.4L747.3,46.4v-6.1l9.5-9.5h67.8v8.4l-9.5,9.5h-61.6v6.2h64.2l13.1-13.1V24.7h-76.5
					l-13.1,13.1v52.7l13.1,13.1h71.6v-6.2h-69l-9.5-9.5v-8l0,0V46.4z"/>
				<path id="Path_13" class="st2" d="M743.9,0l-27.6,27.6v73.2l27.6,27.6h81.8v-6.2h-79.2l-24-24V30.1l24-24h102.7v43.3l-24,24
					h-71.8v6.2h74.4L855.4,52V37.2l0,0V0H743.9z"/>
				<path id="Path_14" class="st2" d="M489.8,144.2h1.9l8.1,17.9h-2.1l-2.1-4.7h-9.7l-2.1,4.7h-2.1L489.8,144.2z M494.8,155.6
					l-4.1-9l-4.1,9H494.8z"/>
				<path id="Path_15" class="st2" d="M504.8,144.3h7.7c1.9-0.1,3.7,0.5,5.1,1.8c0.9,0.9,1.4,2.2,1.4,3.5v0.1c0,2.9-2,4.7-4.8,5.2
					l5.5,7.3h-2.5l-5.2-6.9h-5.1v6.9h-2L504.8,144.3z M512.3,153.4c2.7,0,4.6-1.4,4.6-3.7v-0.1c0-2.2-1.7-3.5-4.5-3.5h-5.5v7.2
					H512.3z"/>
				<path id="Path_16" class="st2" d="M524.7,144.3h2l6.5,9.7l6.5-9.7h2v17.8h-2v-14.4l-6.5,9.5h-0.1l-6.5-9.5v14.4h-2L524.7,144.3z
					"/>
				<path id="Path_17" class="st2" d="M547.6,153.3L547.6,153.3c0-5,4-9.1,9.1-9.1c5,0,9.1,4,9.1,9.1v0.1c0.1,5-3.9,9.2-8.9,9.3
					c-5,0.1-9.2-3.9-9.3-8.9C547.6,153.5,547.6,153.4,547.6,153.3z M563.6,153.3L563.6,153.3c0.2-3.9-2.8-7.1-6.7-7.3
					c-3.9-0.2-7.1,2.8-7.3,6.7c0,0.2,0,0.4,0,0.6v0.1c-0.1,3.9,2.9,7.2,6.8,7.3c0.1,0,0.1,0,0.2,0c3.9,0,7-3.1,7-7
					C563.7,153.5,563.7,153.4,563.6,153.3L563.6,153.3z"/>
				<path id="Path_18" class="st2" d="M571.5,144.3h7.7c1.9-0.1,3.7,0.5,5.1,1.8c0.9,0.9,1.4,2.2,1.4,3.5v0.1c0,2.9-2,4.7-4.8,5.2
					l5.5,7.3h-2.5l-5.2-6.9h-5.1v6.9h-2L571.5,144.3z M579,153.4c2.7,0,4.6-1.4,4.6-3.7v-0.1c0-2.2-1.7-3.5-4.6-3.5h-5.5v7.2H579z"
					/>
				<path id="Path_19" class="st2" d="M599.8,153.3L599.8,153.3c-0.1-5,3.8-9.1,8.8-9.2c0.1,0,0.1,0,0.2,0c2.6-0.1,5.1,0.9,6.9,2.8
					l-1.4,1.5c-1.5-1.5-3.5-2.4-5.6-2.4c-3.9,0.1-7,3.2-6.9,7.1c0,0.1,0,0.1,0,0.2v0.1c-0.2,3.9,2.8,7.2,6.7,7.3c0.1,0,0.1,0,0.2,0
					c2.2,0,4.3-0.9,5.7-2.6l1.3,1.3c-1.8,2-4.4,3.2-7.1,3.1c-4.9,0-8.9-3.9-8.9-8.9C599.8,153.5,599.8,153.4,599.8,153.3
					L599.8,153.3z"/>
				<path id="Path_20" class="st2" d="M619.6,153.3L619.6,153.3c0-5,4-9.1,9.1-9.1c5,0,9.1,4,9.1,9.1v0.1c0.1,5-3.8,9.2-8.8,9.3
					c-5,0.1-9.2-3.8-9.3-8.8C619.6,153.6,619.6,153.4,619.6,153.3z M635.7,153.3L635.7,153.3c0.2-3.9-2.8-7.1-6.7-7.3
					s-7.1,2.8-7.3,6.7c0,0.2,0,0.4,0,0.6v0.1c-0.1,3.9,2.9,7.2,6.8,7.3c0.1,0,0.1,0,0.2,0c3.9,0,7-3.1,7-7
					C635.7,153.5,635.7,153.4,635.7,153.3z"/>
				<path id="Path_21" class="st2" d="M643.5,144.3h1.9l11.3,14.3v-14.3h2v17.8h-1.6l-11.5-14.6v14.6h-2L643.5,144.3z"/>
				<path id="Path_22" class="st2" d="M665.2,144.3h1.9l11.2,14.3v-14.3h2v17.8h-1.6l-11.5-14.6v14.6h-2L665.2,144.3z"/>
				<path id="Path_23" class="st2" d="M686.8,144.3h12.9v1.8h-10.9v6.1h9.7v1.8h-9.7v6.2h11v1.8h-13L686.8,144.3z"/>
				<path id="Path_24" class="st2" d="M704.6,153.3L704.6,153.3c-0.1-5,3.8-9.1,8.8-9.2c0.1,0,0.1,0,0.2,0c2.6-0.1,5.1,0.9,6.9,2.8
					l-1.4,1.5c-1.5-1.5-3.5-2.4-5.6-2.4c-3.9,0.1-7,3.2-6.9,7.1c0,0.1,0,0.1,0,0.2v0.1c-0.2,3.9,2.8,7.1,6.6,7.3c0.1,0,0.2,0,0.2,0
					c2.2,0,4.3-0.9,5.8-2.6l1.3,1.3c-1.8,2-4.4,3.2-7.1,3.1c-4.9,0-8.9-3.9-8.9-8.9C704.6,153.5,704.6,153.4,704.6,153.3z"/>
				<path id="Path_25" class="st2" d="M730.4,146.2h-6v-1.9h14v1.9h-6v15.9h-2V146.2z"/>
				<path id="Path_26" class="st2" d="M752.8,144.3h12.8v1.8h-10.8v6.1h9.7v1.8h-9.7v6.2h11v1.8h-13L752.8,144.3z"/>
				<path id="Path_27" class="st2" d="M771.4,144.3h1.9l11.2,14.3v-14.3h2v17.8h-1.6l-11.5-14.6v14.6h-2V144.3z"/>
				<path id="Path_28" class="st2" d="M792.2,153.3L792.2,153.3c-0.1-4.9,3.7-9.1,8.7-9.2c0.1,0,0.2,0,0.3,0
					c2.4-0.1,4.8,0.7,6.6,2.4l-1.3,1.5c-1.5-1.4-3.4-2.1-5.4-2c-3.9,0-6.8,3.3-6.8,7.3v0.1c0,4.3,2.7,7.4,7,7.4
					c1.9,0,3.7-0.6,5.1-1.8v-4.4h-5.4v-1.8h7.3v7.1c-2,1.7-4.5,2.7-7.1,2.7C795.7,162.4,792.2,158.4,792.2,153.3z"/>
				<path id="Path_29" class="st2" d="M814.7,144.3h2v17.8h-2V144.3z"/>
				<path id="Path_30" class="st2" d="M823.4,144.3h1.9l11.2,14.3v-14.3h2v17.8h-1.6l-11.5-14.6v14.6h-2V144.3z"/>
				<path id="Path_31" class="st2" d="M845.1,144.3h12.9v1.8h-10.9v6.1h9.7v1.8h-9.7v6.2h11v1.8h-13L845.1,144.3z"/>
			</g>
		</g>
	</g>
</g>
</svg>
