<svg xmlns="http://www.w3.org/2000/svg" viewBox="0 0 2755.66 2965.49"><defs><style>.cls-1,.cls-2,.cls-3,.cls-4,.cls-5{fill:none;stroke:#262262;stroke-miterlimit:10;stroke-width:1.11px;}.cls-1{stroke-dasharray:13.99 13.99;}.cls-3{stroke-dasharray:14.01 14.01;}.cls-4{stroke-dasharray:14.02 14.02;}.cls-5{stroke-dasharray:14.01 14.01;}</style></defs><title>Asset 4</title><g id="Layer_2" data-name="Layer 2"><g id="Geometry"><path class="cls-1" d="M1377.16,2215a738.84,738.84,0,0,1-368.37-98.87c-171-98.57-293.41-257.84-344.64-448.46s-25.14-389.8,73.43-560.83c131.58-228.26,377.17-370.06,640.93-370.06a738.71,738.71,0,0,1,368.36,98.88c171,98.56,293.41,257.84,344.63,448.46s25.15,389.8-73.43,560.82C1886.5,2073.21,1640.91,2215,1377.16,2215Z"/><path class="cls-2" d="M739.17,1847.29a738.85,738.85,0,0,1-368.34-98.86c-353-203.51-474.7-656.27-271.21-1009.31C231.18,510.86,476.77,369.06,740.54,369.06a738.74,738.74,0,0,1,368.36,98.88c171,98.56,293.4,257.84,344.63,448.46s25.14,389.8-73.42,560.82C1248.52,1705.48,1002.94,1847.29,739.17,1847.29Z"/><path class="cls-2" d="M2015.13,2582.75h0a738.8,738.8,0,0,1-368.37-98.88c-171-98.57-293.4-257.84-344.62-448.46s-25.15-389.8,73.43-560.82c131.57-228.26,377.16-370.07,640.92-370.07a738.71,738.71,0,0,1,368.36,98.88c171,98.57,293.41,257.84,344.64,448.46s25.14,389.8-73.43,560.82C2524.47,2440.93,2278.87,2582.75,2015.13,2582.75Z"/><path class="cls-2" d="M1377.83,1478.53c-407.48,0-739-331.51-739-739,0-197.4,76.85-383,216.44-522.55S1180.43.55,1377.83.55c407.48,0,739,331.51,739,739,0,197.39-76.87,383-216.45,522.55S1575.22,1478.53,1377.83,1478.53Z"/><path class="cls-2" d="M1377.83,2951.26c-407.48,0-739-331.51-739-739s331.51-739,739-739c197.39,0,383,76.86,522.54,216.44s216.45,325.16,216.45,522.55C2116.82,2619.75,1785.31,2951.26,1377.83,2951.26Z"/><path class="cls-2" d="M2016.48,1847.29c-263.76,0-509.35-141.81-640.92-370.07-203.5-353-81.83-805.8,271.2-1009.3a738.93,738.93,0,0,1,368.36-98.87c263.76,0,509.35,141.81,640.93,370.07,203.49,353,81.82,805.8-271.21,1009.29A738.68,738.68,0,0,1,2016.48,1847.29Z"/><path class="cls-2" d="M740.61,2582.75h-.06c-263.78,0-509.37-141.83-640.93-370.07-98.57-171-124.66-370.2-73.43-560.83S199.81,1302,370.83,1203.38a738.76,738.76,0,0,1,368.34-98.87c263.77,0,509.37,141.81,640.94,370.08,98.58,171,124.65,370.18,73.43,560.82s-173.62,349.89-344.64,448.46A738.59,738.59,0,0,1,740.61,2582.75Z"/><polyline class="cls-2" points="1381.32 2958.34 1377.84 2964.38 1374.35 2958.34"/><line class="cls-3" x1="1367.34" y1="2946.21" x2="95.23" y2="744.66"/><polyline class="cls-2" points="91.73 738.6 88.24 732.56 95.21 732.56"/><line class="cls-4" x1="109.23" y1="732.56" x2="2653.44" y2="732.56"/><polyline class="cls-2" points="2660.45 732.56 2667.42 732.56 2663.93 738.6"/><line class="cls-5" x1="2656.92" y1="750.73" x2="1384.83" y2="2952.28"/><path class="cls-2" d="M2019.54,1852.42,725.7,1851.5,1377.41,723.57Z"/></g></g></svg>