<?xml version="1.0" encoding="utf-8"?>
<!-- Generator: Adobe Illustrator 24.0.1, SVG Export Plug-In . SVG Version: 6.00 Build 0)  -->
<svg version="1.1" id="Layer_1" xmlns="http://www.w3.org/2000/svg" xmlns:xlink="http://www.w3.org/1999/xlink" x="0px" y="0px"
	 viewBox="0 0 261.57 151.87" style="enable-background:new 0 0 261.57 151.87;" xml:space="preserve">
<style type="text/css">
	.st0{fill:url(#SVGID_1_);}
	.st1{fill:#1F273A;}
</style>
<g>
	<linearGradient id="SVGID_1_" gradientUnits="userSpaceOnUse" x1="130.5285" y1="-4.7498" x2="130.5285" y2="154.9742">
		<stop  offset="0" style="stop-color:#F0E530"/>
		<stop  offset="1" style="stop-color:#E52F7B"/>
	</linearGradient>
	<path class="st0" d="M87.19,150.66l16.28,0v0c21.47,0,40.82-9,54.54-23.4c13.72,14.41,33.07,23.4,54.54,23.4v0l49.27,0l0-41.19
		h-49.27v0l0,0c-18.62,0-33.78-14.87-33.78-33.02h0c0-18.14,15.15-32.9,33.78-32.9l49.27,0l0-43.51h-49.27
		c-21.47,0-40.82,9-54.54,23.41c0.01,0.01,0.01,0.01,0.02,0.02C144.3,9.04,124.94,0.04,103.47,0.04L47.45-0.18l0-0.02H-0.76
		l0.18,151.09L87.19,150.66z M178.78,75.35L178.78,75.35c0-0.01,0-0.02,0-0.02C178.78,75.34,178.78,75.34,178.78,75.35z
		 M87.19,43.55l16.27,0c18.62,0,33.78,14.76,33.78,32.9l0,0c0,0.01,0,0.02,0,0.03c-0.02,18.13-15.16,32.98-33.77,32.98v0l0,0H87.19
		V43.55z"/>
	<g>
		<rect x="-0.76" y="-0.19" class="st1" width="8.81" height="43.68"/>
		<rect x="16.86" y="-0.19" class="st1" width="8.81" height="43.68"/>
		<rect x="34.47" y="-0.19" class="st1" width="8.81" height="43.68"/>
		
			<rect x="16.86" y="58.96" transform="matrix(-1.095502e-06 -1 1 -1.095502e-06 -59.5391 102.0584)" class="st1" width="8.81" height="43.68"/>
		
			<rect x="16.86" y="42.54" transform="matrix(-1.095498e-06 -1 1 -1.095498e-06 -43.1156 85.6348)" class="st1" width="8.81" height="43.68"/>
		
			<rect x="16.86" y="26.11" transform="matrix(-1.095498e-06 -1 1 -1.095498e-06 -26.6921 69.2113)" class="st1" width="8.81" height="43.68"/>
		
			<rect x="16.86" y="91.81" transform="matrix(-1.095502e-06 -1 1 -1.095502e-06 -92.3861 134.9054)" class="st1" width="8.81" height="43.68"/>
		
			<rect x="16.86" y="75.38" transform="matrix(-1.095498e-06 -1 1 -1.095498e-06 -75.9626 118.4819)" class="st1" width="8.81" height="43.68"/>
		
			<rect x="16.86" y="124.66" transform="matrix(-1.095502e-06 -1 1 -1.095502e-06 -125.2331 167.7524)" class="st1" width="8.81" height="43.68"/>
		
			<rect x="16.86" y="108.23" transform="matrix(-1.095498e-06 -1 1 -1.095498e-06 -108.8096 151.3289)" class="st1" width="8.81" height="43.68"/>
		<rect x="43.16" y="43.55" class="st1" width="8.81" height="107.11"/>
		<rect x="60.77" y="43.55" class="st1" width="8.81" height="107.11"/>
		<rect x="78.39" y="43.55" class="st1" width="8.81" height="107.11"/>
		<path class="st1" d="M163.76,30.22c12.16-13.13,29.52-21.37,48.79-21.37l49.27,0l0-8.81h-49.27c-21.47,0-40.82,9-54.54,23.41
			C160.05,25.59,161.98,27.84,163.76,30.22z"/>
		<path class="st1" d="M172.61,45.48c9.18-12.18,23.8-20.08,40.15-20.08l49.05,0.02l0-8.81l-49.27,0l0-0.02
			c-17.71,0-33.59,7.85-44.36,20.25C169.84,39.61,171.32,42.49,172.61,45.48z"/>
		<path class="st1" d="M178.77,76.45c0-18.14,15.15-32.9,33.78-32.9l49.27,0l0-8.58l-49.27,0v0c-15.52,0-29.09,8.09-36.53,20.17
			c1.79,6.43,2.77,13.21,2.77,20.21L178.77,76.45L178.77,76.45z"/>
		<g>
			<path class="st1" d="M158,127.26c-2.04-2.15-3.96-4.4-5.74-6.78c-12.16,13.13-29.53,21.38-48.79,21.38l0,0l-16.28,0l0,8.81
				l16.28,0v0C124.93,150.66,144.29,141.67,158,127.26z"/>
			<path class="st1" d="M103.47,134.47c17.75,0,33.64-7.99,44.42-20.52c-1.65-2.75-3.14-5.6-4.43-8.57
				c-9.12,12.27-23.65,20.28-39.99,20.28H87.19v8.81L103.47,134.47L103.47,134.47z"/>
			<path class="st1" d="M103.47,118.05c15.83,0,29.63-8.47,36.97-20.99c-1.97-6.54-3.09-13.44-3.19-20.59
				c-0.01,18.13-15.16,33-33.77,33v0l0,0H87.19l0,8.58H103.47z"/>
		</g>
		<g>
			<path class="st1" d="M212.54,109.47L212.54,109.47L212.54,109.47c-18.62,0-33.78-14.87-33.78-33.02l0.01-1.1
				c0-41.59-33.72-75.31-75.31-75.31v0l0,0l-60.19,0l0,8.81l60.19,0l0,0v0c36.67,0,66.5,29.83,66.5,66.5l-0.01,1.1
				c0,22.91,19.06,41.59,42.58,41.59l0,0v0h49.27l0-8.58H212.54z"/>
			<path class="st1" d="M212.55,141.86L212.55,141.86c-36.3,0-65.91-29.24-66.5-65.4h0c0-22.91-19.06-41.48-42.58-41.48l0,0
				l-60.19,0l0,8.58l60.19,0c18.62,0,33.78,14.76,33.78,32.9l0,0c0.59,41.08,34.08,74.21,75.3,74.21v0l49.27,0l0-8.81L212.55,141.86
				L212.55,141.86z"/>
			<path class="st1" d="M212.54,125.67L212.54,125.67c-27.54,0-49.95-22.77-49.95-50.32c0-32.45-26.67-58.76-59.12-58.76v0.02l0,0
				l-60.19,0l0,8.81l60.19,0l0.02-0.02c27.54,0.01,50.3,22.41,50.3,49.95c0,32.45,26.31,59.12,58.76,59.12l0,0v0l49.27,0l0-8.81
				L212.54,125.67L212.54,125.67z"/>
		</g>
	</g>
</g>
</svg>
