<svg id="Layer_1" data-name="Layer 1" xmlns="http://www.w3.org/2000/svg" xmlns:xlink="http://www.w3.org/1999/xlink" viewBox="0 0 173.42 118.33"><defs><style>.cls-1{fill:none;}.cls-2{fill:url(#linear-gradient);}.cls-3{fill:#1f273a;}</style><linearGradient id="linear-gradient" x1="86.69" y1="12.28" x2="86.69" y2="101.83" gradientUnits="userSpaceOnUse"><stop offset="0" stop-color="#f0e530"/><stop offset="1" stop-color="#e52f7b"/></linearGradient></defs><title>IDC_PrimLogo_Color_Gradient</title><rect class="cls-1" x="151.76" width="21.66" height="21.66"/><rect class="cls-1" width="21.66" height="21.66"/><rect class="cls-1" x="151.76" y="96.67" width="21.66" height="21.66"/><rect class="cls-1" y="96.67" width="21.66" height="21.66"/><rect class="cls-1" width="173.42" height="118.33"/><path class="cls-2" d="M126.48,43.32h25.28V21.66H127A37.6,37.6,0,0,0,100,33.07,37.4,37.4,0,0,0,73.12,21.66h-29l-22.49,0,0,19.27V96.67H73.07a37.56,37.56,0,0,0,27-11.44A37.41,37.41,0,0,0,127,96.67h24.8V75H126.48a15.85,15.85,0,1,1,0-31.69Zm-37,15.85h0A15.84,15.84,0,0,1,73.55,75H65.16V43.36l8.44,0A15.87,15.87,0,0,1,89.45,59.17Z"/><rect class="cls-3" x="21.63" y="45.76" width="21.84" height="2.41"/><rect class="cls-3" x="21.63" y="50.61" width="21.84" height="2.41"/><rect class="cls-3" x="21.63" y="55.46" width="21.84" height="2.41"/><rect class="cls-3" x="21.63" y="60.31" width="21.84" height="2.41"/><rect class="cls-3" x="21.63" y="65.16" width="21.84" height="2.41"/><rect class="cls-3" x="21.63" y="70.01" width="21.84" height="2.41"/><rect class="cls-3" x="21.63" y="74.86" width="21.84" height="2.41"/><rect class="cls-3" x="21.63" y="79.71" width="21.84" height="2.41"/><rect class="cls-3" x="21.63" y="84.56" width="21.84" height="2.41"/><rect class="cls-3" x="21.63" y="89.41" width="21.84" height="2.41"/><rect class="cls-3" x="21.63" y="94.26" width="21.84" height="2.41"/><rect class="cls-3" x="48.31" y="43.36" width="2.41" height="53.31"/><rect class="cls-3" x="53.12" y="43.36" width="2.41" height="53.31"/><rect class="cls-3" x="57.94" y="43.36" width="2.41" height="53.31"/><path class="cls-3" d="M127,24.07h24.8V21.66H127A37.6,37.6,0,0,0,100,33.07,37.4,37.4,0,0,0,73.12,21.66h-29v0H41.74V40.91H39.13V21.64H36.72V40.91H34.11V21.64H31.7V40.91H29.09V21.64H26.68V40.91H24.07V21.64H21.66V40.91h0v2.41H41.74v0H43.5V96.67h2.41V43.36H44.15v0H73.6A15.87,15.87,0,0,1,89.45,59.17h0A15.84,15.84,0,0,1,73.55,75H65.16V43.36H62.75V96.67H73.07a37.56,37.56,0,0,0,27-11.44A37.41,37.41,0,0,0,127,96.67h24.8V94.26H127a35.13,35.13,0,0,1-35.1-35.09A18.28,18.28,0,0,0,73.6,40.91H44.15v-2.4H73.6A20.57,20.57,0,0,1,94,59.17a32.61,32.61,0,0,0,32.45,32.69h25.28V89.45H126.48a30.19,30.19,0,0,1-30-30.28A23,23,0,0,0,73.6,36.1H44.15V33.7H73.6A25.38,25.38,0,0,1,98.83,59.17a27.8,27.8,0,0,0,27.65,27.88h25.28V84.64H126.48a25.39,25.39,0,0,1-25.24-25.47A27.8,27.8,0,0,0,73.6,31.28H44.15v-2.4H73.6a30.23,30.23,0,0,1,30.1,30.29,23,23,0,0,0,22.78,23.07h25.28V79.83H126.48a20.3,20.3,0,0,1-20.37-20.66A32.64,32.64,0,0,0,73.6,26.47H44.15v-2.4h29a35.14,35.14,0,0,1,35.1,35.1,18.28,18.28,0,0,0,18.26,18.25h25.28V75H126.48a15.85,15.85,0,1,1,0-31.69h25.28V40.91H126.48a18.27,18.27,0,0,0-16.61,10.7c-.24-1.16-.54-2.3-.88-3.42a20.76,20.76,0,0,1,17.49-9.68h25.28V36.1H126.48A23.2,23.2,0,0,0,108,45.38c-.34-.84-.7-1.68-1.09-2.49a25.3,25.3,0,0,1,19.57-9.19h25.28V31.28H126.48a27.71,27.71,0,0,0-20.79,9.32c-.41-.72-.84-1.43-1.3-2.12a30.27,30.27,0,0,1,22.09-9.6h25.28V26.47H126.48a32.72,32.72,0,0,0-23.52,10c-.42-.55-.86-1.08-1.3-1.61A35.17,35.17,0,0,1,127,24.07ZM73.55,77.42A18.29,18.29,0,0,0,90.2,66.65c.24,1.17.53,2.31.87,3.44a20.77,20.77,0,0,1-17.52,9.74H65.16V77.42Zm20.82.28c.41.72.84,1.43,1.3,2.12a30.27,30.27,0,0,1-22.12,9.63H65.16v-2.4h8.39A27.72,27.72,0,0,0,94.37,77.7ZM73.55,84.64H65.16v-2.4h8.39A23.2,23.2,0,0,0,92.07,72.9c.33.85.69,1.69,1.08,2.51A25.31,25.31,0,0,1,73.55,84.64Zm-.48,9.62H65.16v-2.4h8.39a32.73,32.73,0,0,0,23.55-10c.41.55.85,1.09,1.3,1.61A35.13,35.13,0,0,1,73.07,94.26Z"/></svg>